<svg width="55" height="55" viewBox="0 0 55 55" fill="none" xmlns="http://www.w3.org/2000/svg">
<circle r="27.5" transform="matrix(-1 0 0 1 27.5 27.5)" fill="white"/>
<path d="M25.6668 36.1663C25.3942 36.1668 25.13 36.0719 24.9201 35.8979C24.802 35.8 24.7043 35.6797 24.6327 35.544C24.5612 35.4082 24.5171 35.2597 24.503 35.1069C24.4889 34.9541 24.5051 34.8 24.5506 34.6535C24.5962 34.5069 24.6702 34.3708 24.7684 34.2529L29.9951 27.9996L24.9551 21.7346C24.8582 21.6153 24.7858 21.478 24.7421 21.3306C24.6985 21.1832 24.6844 21.0286 24.7006 20.8757C24.7169 20.7229 24.7632 20.5747 24.8369 20.4398C24.9106 20.3049 25.0103 20.1859 25.1301 20.0896C25.2508 19.9834 25.3922 19.9033 25.5453 19.8543C25.6984 19.8053 25.8601 19.7885 26.02 19.8049C26.1799 19.8214 26.3348 19.8707 26.4747 19.9498C26.6147 20.0289 26.7368 20.1361 26.8334 20.2646L32.4684 27.2646C32.64 27.4734 32.7338 27.7352 32.7338 28.0054C32.7338 28.2757 32.64 28.5375 32.4684 28.7463L26.6351 35.7463C26.5181 35.8875 26.3694 35.9991 26.2011 36.072C26.0329 36.145 25.8498 36.1773 25.6668 36.1663Z" fill="#10212A"/>
</svg>
