<svg width="55" height="55" viewBox="0 0 55 55" fill="none" xmlns="http://www.w3.org/2000/svg">
<circle r="27.5" transform="matrix(1 0 0 -1 27.5 27.5)" fill="white"/>
<path d="M29.3332 18.8337C29.6058 18.8332 29.87 18.9281 30.0799 19.1021C30.198 19.2 30.2957 19.3203 30.3673 19.456C30.4388 19.5918 30.4829 19.7403 30.497 19.8931C30.5111 20.0459 30.4949 20.2 30.4494 20.3465C30.4038 20.4931 30.3298 20.6292 30.2316 20.7471L25.0049 27.0004L30.0449 33.2654C30.1418 33.3847 30.2142 33.522 30.2579 33.6694C30.3015 33.8168 30.3156 33.9714 30.2994 34.1243C30.2831 34.2771 30.2368 34.4253 30.1631 34.5602C30.0894 34.6951 29.9897 34.8141 29.8699 34.9104C29.7492 35.0166 29.6078 35.0967 29.4547 35.1457C29.3016 35.1947 29.1399 35.2115 28.98 35.1951C28.8201 35.1786 28.6652 35.1293 28.5253 35.0502C28.3853 34.9711 28.2632 34.8639 28.1666 34.7354L22.5316 27.7354C22.36 27.5266 22.2662 27.2648 22.2662 26.9946C22.2662 26.7243 22.36 26.4625 22.5316 26.2537L28.3649 19.2537C28.4819 19.1125 28.6306 19.0009 28.7989 18.928C28.9671 18.855 29.1502 18.8227 29.3332 18.8337Z" fill="#10212A"/>
</svg>
