<svg width="57" height="57" viewBox="0 0 57 57" fill="none" xmlns="http://www.w3.org/2000/svg">
<path fill-rule="evenodd" clip-rule="evenodd" d="M3.33252 28.4999C3.33252 21.8251 5.98408 15.4237 10.7039 10.7039C15.4237 5.98408 21.8251 3.33252 28.4999 3.33252C35.1747 3.33252 41.5762 5.98408 46.296 10.7039C51.0158 15.4237 53.6673 21.8251 53.6673 28.4999C53.6673 35.1747 51.0158 41.5762 46.296 46.296C41.5762 51.0158 35.1747 53.6673 28.4999 53.6673C21.8251 53.6673 15.4237 51.0158 10.7039 46.296C5.98408 41.5762 3.33252 35.1747 3.33252 28.4999ZM28.4999 6.94252C22.7825 6.94252 17.2993 9.21374 13.2565 13.2565C9.21374 17.2993 6.94252 22.7825 6.94252 28.4999C6.94252 34.2173 9.21374 39.7005 13.2565 43.7433C17.2993 47.7861 22.7825 50.0573 28.4999 50.0573C34.2173 50.0573 39.7005 47.7861 43.7433 43.7433C47.7861 39.7005 50.0573 34.2173 50.0573 28.4999C50.0573 22.7825 47.7861 17.2993 43.7433 13.2565C39.7005 9.21374 34.2173 6.94252 28.4999 6.94252ZM37.4451 19.5585C37.8013 19.9148 38.0014 20.398 38.0014 20.9018C38.0014 21.4056 37.8013 21.8888 37.4451 22.2451L31.1865 28.4999L37.4451 34.7547C37.8019 35.1115 38.0023 35.5954 38.0023 36.0999C38.0023 36.6045 37.8019 37.0883 37.4451 37.4451C37.0883 37.8019 36.6045 38.0023 36.0999 38.0023C35.5954 38.0023 35.1115 37.8019 34.7547 37.4451L28.4999 31.1865L22.2451 37.4451C22.0685 37.6218 21.8587 37.7619 21.6279 37.8575C21.3971 37.9531 21.1497 38.0023 20.8999 38.0023C20.6501 38.0023 20.4027 37.9531 20.1719 37.8575C19.9411 37.7619 19.7314 37.6218 19.5547 37.4451C19.3781 37.2685 19.2379 37.0587 19.1423 36.8279C19.0467 36.5971 18.9975 36.3497 18.9975 36.0999C18.9975 35.8501 19.0467 35.6027 19.1423 35.3719C19.2379 35.1411 19.3781 34.9314 19.5547 34.7547L25.8133 28.4999L19.5547 22.2451C19.1979 21.8883 18.9975 21.4045 18.9975 20.8999C18.9975 20.3954 19.1979 19.9115 19.5547 19.5547C19.9115 19.1979 20.3954 18.9975 20.8999 18.9975C21.4045 18.9975 21.8883 19.1979 22.2451 19.5547L28.4999 25.8133L34.7547 19.5547C34.9312 19.3778 35.1409 19.2374 35.3717 19.1416C35.6025 19.0458 35.85 18.9965 36.0999 18.9965C36.3498 18.9965 36.5973 19.0458 36.8281 19.1416C37.059 19.2374 37.2686 19.3778 37.4451 19.5547V19.5585Z" fill="#B98532"/>
</svg>
